# This file uses meters as units for non-parametric coordinates.

mtllib stool.mtl
g default
v 18.526840 -0.005962 24.156883
v 18.103354 -0.005962 23.981468
v 17.927940 -0.005962 23.557981
v 17.927940 59.794128 23.557981
v 18.103354 59.794128 23.981468
v 18.526840 59.794128 24.156883
v 23.917538 -0.005962 23.557981
v 23.742130 -0.005962 23.981468
v 23.318642 -0.005962 24.156883
v 23.318642 59.794128 24.156883
v 23.742130 59.794128 23.981468
v 23.917538 59.794128 23.557981
v 18.526840 59.794128 18.167282
v 18.103354 59.794128 18.342693
v 17.927940 59.794128 18.766178
v 17.927940 -0.005962 18.766178
v 18.103354 -0.005962 18.342693
v 18.526840 -0.005962 18.167282
v 23.917538 59.794128 18.766178
v 23.742130 59.794128 18.342693
v 23.318642 59.794128 18.167282
v 23.318642 -0.005962 18.167282
v 23.742130 -0.005962 18.342693
v 23.917538 -0.005962 18.766178
v -29.647419 60.877571 -23.718525
v -29.602034 60.987141 -23.699726
v -29.492464 61.032524 -23.654341
v -23.718525 60.877571 -29.647419
v -23.699726 60.987141 -29.602034
v -23.654341 61.032524 -29.492464
v -23.718525 58.088074 -29.647419
v -23.699726 57.978504 -29.602034
v -23.654341 57.933121 -29.492464
v -29.647419 58.088074 -23.718525
v -29.602034 57.978504 -23.699726
v -29.492464 57.933121 -23.654341
v 23.718525 60.877571 -29.647419
v 23.699726 60.987141 -29.602034
v 23.654341 61.032524 -29.492464
v 23.718525 58.088074 -29.647419
v 23.699726 57.978504 -29.602034
v 23.654341 57.933121 -29.492464
v -29.647419 58.088074 23.718525
v -29.602034 57.978504 23.699726
v -29.492464 57.933121 23.654341
v -29.647419 60.877571 23.718525
v -29.602034 60.987141 23.699726
v -29.492464 61.032524 23.654341
v 29.647419 60.877571 -23.718525
v 29.602034 60.987141 -23.699726
v 29.492464 61.032524 -23.654341
v 29.647419 58.088074 -23.718525
v 29.602034 57.978504 -23.699726
v 29.492464 57.933121 -23.654341
v -23.718525 58.088074 29.647419
v -23.699726 57.978504 29.602034
v -23.654341 57.933121 29.492464
v -23.718525 60.877571 29.647419
v -23.699726 60.987141 29.602034
v -23.654341 61.032524 29.492464
v 29.647419 58.088074 23.718525
v 29.602034 57.978504 23.699726
v 29.492464 57.933121 23.654341
v 29.647419 60.877571 23.718525
v 29.602034 60.987141 23.699726
v 29.492464 61.032524 23.654341
v 23.718525 58.088074 29.647419
v 23.699726 57.978504 29.602034
v 23.654341 57.933121 29.492464
v 23.718525 60.877571 29.647419
v 23.699726 60.987141 29.602034
v 23.654341 61.032524 29.492464
v -10.816229 58.243031 2.515899
v -10.907000 58.023891 2.606669
v -11.126139 57.933121 2.825809
v -10.816229 58.243031 -3.303421
v -10.907000 58.023891 -3.394192
v -11.126139 57.933121 -3.613331
v -10.816229 60.722614 -3.303421
v -10.907000 60.941753 -3.394192
v -11.126139 61.032524 -3.613331
v -10.816229 60.722614 2.515899
v -10.907000 60.941753 2.606669
v -11.126139 61.032524 2.825809
v 13.080925 60.722614 -3.303421
v 13.171696 60.941753 -3.394192
v 13.390835 61.032524 -3.613331
v 13.080925 58.243031 -3.303421
v 13.171696 58.023891 -3.394192
v 13.390835 57.933121 -3.613331
v 13.080925 58.243031 2.515899
v 13.171696 58.023891 2.606669
v 13.390835 57.933121 2.825809
v 13.080925 60.722614 2.515899
v 13.171696 60.941753 2.606669
v 13.390835 61.032524 2.825809
v 18.837109 -0.005962 -26.228575
v 19.012522 -0.005962 -26.652061
v 19.436008 -0.005962 -26.827473
v 19.436008 59.794128 -26.827473
v 19.012522 59.794128 -26.652061
v 18.837109 59.794128 -26.228575
v 19.436008 -0.005962 -20.837875
v 19.012522 -0.005962 -21.013285
v 18.837109 -0.005962 -21.436771
v 18.837109 59.794128 -21.436771
v 19.012522 59.794128 -21.013285
v 19.436008 59.794128 -20.837875
v 24.826710 59.794128 -26.228575
v 24.651297 59.794128 -26.652061
v 24.227812 59.794128 -26.827473
v 24.227812 -0.005962 -26.827473
v 24.651297 -0.005962 -26.652061
v 24.826710 -0.005962 -26.228575
v 24.227812 59.794128 -20.837875
v 24.651297 59.794128 -21.013285
v 24.826710 59.794128 -21.436771
v 24.826710 -0.005962 -21.436771
v 24.651297 -0.005962 -21.013285
v 24.227812 -0.005962 -20.837875
v -17.630669 -0.005962 23.557980
v -17.806082 -0.005962 23.981466
v -18.229568 -0.005962 24.156879
v -18.229568 59.794128 24.156879
v -17.806082 59.794128 23.981466
v -17.630669 59.794128 23.557980
v -18.229568 -0.005962 18.167282
v -17.806082 -0.005962 18.342690
v -17.630669 -0.005962 18.766178
v -17.630669 59.794128 18.766178
v -17.806082 59.794128 18.342690
v -18.229568 59.794128 18.167282
v -23.620270 59.794128 23.557980
v -23.444857 59.794128 23.981466
v -23.021372 59.794128 24.156879
v -23.021372 -0.005962 24.156879
v -23.444857 -0.005962 23.981466
v -23.620270 -0.005962 23.557980
v -23.021372 59.794128 18.167282
v -23.444857 59.794128 18.342690
v -23.620270 59.794128 18.766178
v -23.620270 -0.005962 18.766178
v -23.444857 -0.005962 18.342690
v -23.021372 -0.005962 18.167282
v -23.021368 -0.005962 -20.837875
v -23.444855 -0.005962 -21.013288
v -23.620266 -0.005962 -21.436775
v -23.620266 59.794128 -21.436775
v -23.444855 59.794128 -21.013288
v -23.021368 59.794128 -20.837875
v -17.630669 -0.005962 -21.436775
v -17.806078 -0.005962 -21.013288
v -18.229565 -0.005962 -20.837875
v -18.229565 59.794128 -20.837875
v -17.806078 59.794128 -21.013288
v -17.630669 59.794128 -21.436775
v -23.021368 59.794128 -26.827477
v -23.444855 59.794128 -26.652063
v -23.620266 59.794128 -26.228579
v -23.620266 -0.005962 -26.228579
v -23.444855 -0.005962 -26.652063
v -23.021368 -0.005962 -26.827477
v -17.630669 59.794128 -26.228579
v -17.806078 59.794128 -26.652063
v -18.229565 59.794128 -26.827477
v -18.229565 -0.005962 -26.827477
v -17.806078 -0.005962 -26.652063
v -17.630669 -0.005962 -26.228579
vt 0.517282 0.491504
vt 0.517282 0.049044
vt 0.552737 0.049044
vt 0.552737 0.491504
vt 0.637212 0.049044
vt 0.637211 0.491504
vt 0.601757 0.491504
vt 0.601757 0.049044
vt 0.559520 0.491504
vt 0.559520 0.049044
vt 0.594974 0.049044
vt 0.594974 0.491504
vt 0.475045 0.491504
vt 0.475045 0.049044
vt 0.510499 0.049044
vt 0.510499 0.491504
vt 0.513891 0.049044
vt 0.513891 0.491504
vt 0.556128 0.049044
vt 0.556128 0.491504
vt 0.471653 0.491504
vt 0.640603 0.049044
vt 0.598366 0.491504
vt 0.598366 0.049044
vt 0.640603 0.491503
vt 0.471653 0.049044
vt 0.969145 0.255069
vt 0.969145 0.218279
vt 0.981384 0.218279
vt 0.981384 0.255069
vt 0.969145 0.010138
vt 0.981384 0.010138
vt 0.981384 0.463210
vt 0.969145 0.463210
vt 0.969145 0.989862
vt 0.969145 0.953072
vt 0.981384 0.953072
vt 0.981384 0.989862
vt 0.981384 0.500000
vt 0.969145 0.500000
vt 0.969145 0.744931
vt 0.981384 0.744931
vt 0.981384 0.708141
vt 0.969145 0.708141
vt 0.010512 0.944569
vt 0.011372 0.944290
vt 0.055109 0.988013
vt 0.054827 0.988872
vt 0.012248 0.943935
vt 0.055462 0.987137
vt 0.405881 0.988014
vt 0.406160 0.988873
vt 0.405526 0.987138
vt 0.013229 0.480902
vt 0.014088 0.480624
vt 0.057825 0.524351
vt 0.057544 0.525210
vt 0.014965 0.480268
vt 0.058179 0.523475
vt 0.408610 0.524343
vt 0.408889 0.525202
vt 0.408255 0.523466
vt 0.449610 0.944281
vt 0.450469 0.944562
vt 0.448734 0.943927
vt 0.014088 0.129850
vt 0.014964 0.130203
vt 0.013229 0.129568
vt 0.452330 0.480603
vt 0.453188 0.480885
vt 0.451453 0.480250
vt 0.011371 0.593508
vt 0.012248 0.593861
vt 0.010512 0.593226
vt 0.449609 0.593497
vt 0.450468 0.593219
vt 0.448732 0.593853
vt 0.057807 0.086112
vt 0.058163 0.086988
vt 0.057529 0.085253
vt 0.452322 0.129832
vt 0.453181 0.129554
vt 0.451446 0.130188
vt 0.055100 0.549774
vt 0.055456 0.550650
vt 0.054821 0.548915
vt 0.408590 0.086103
vt 0.408236 0.086980
vt 0.408871 0.085245
vt 0.405871 0.549780
vt 0.406152 0.548921
vt 0.405518 0.550656
vt 0.931873 0.053151
vt 0.931873 0.009286
vt 0.949917 0.009286
vt 0.949917 0.053151
vt 0.949917 0.271722
vt 0.949917 0.454951
vt 0.931873 0.454951
vt 0.931873 0.271722
vt 0.931873 0.232061
vt 0.949917 0.232061
vt 0.206464 0.206135
vt 0.329583 0.795637
vt 0.148156 0.795635
vt 0.329580 0.747984
vt 0.148159 0.747982
vt 0.254120 0.387559
vt 0.254117 0.206137
vt 0.206467 0.387563
vt 0.930095 0.053151
vt 0.930095 0.009286
vt 0.928293 0.053151
vt 0.928293 0.009286
vt 0.930095 0.454951
vt 0.930095 0.271722
vt 0.928293 0.454951
vt 0.928293 0.271722
vt 0.951677 0.009286
vt 0.951677 0.053151
vt 0.953437 0.009286
vt 0.953437 0.053151
vt 0.951677 0.232061
vt 0.953437 0.232061
vt 0.953437 0.454951
vt 0.951677 0.454951
vt 0.951677 0.271722
vt 0.953437 0.271722
vt 0.930094 0.232061
vt 0.928293 0.232061
vt 0.749852 0.990560
vt 0.749852 0.548100
vt 0.785307 0.548100
vt 0.785306 0.990560
vt 0.869782 0.548100
vt 0.869781 0.990560
vt 0.834327 0.990560
vt 0.834327 0.548101
vt 0.792090 0.990560
vt 0.792090 0.548101
vt 0.827544 0.548100
vt 0.827544 0.990560
vt 0.707615 0.990560
vt 0.707615 0.548101
vt 0.743069 0.548101
vt 0.743069 0.990560
vt 0.746461 0.548100
vt 0.746461 0.990560
vt 0.788698 0.548100
vt 0.788698 0.990560
vt 0.704223 0.990560
vt 0.704223 0.548100
vt 0.873173 0.990560
vt 0.873173 0.548100
vt 0.830936 0.990560
vt 0.830936 0.548100
vt 0.749852 0.488273
vt 0.749852 0.045814
vt 0.785306 0.045814
vt 0.785306 0.488274
vt 0.869782 0.045814
vt 0.869781 0.488273
vt 0.834327 0.488273
vt 0.834327 0.045814
vt 0.792090 0.488273
vt 0.792090 0.045814
vt 0.827544 0.045814
vt 0.827544 0.488274
vt 0.707615 0.488273
vt 0.707615 0.045814
vt 0.743069 0.045814
vt 0.743069 0.488274
vt 0.746461 0.045814
vt 0.746461 0.488274
vt 0.788698 0.045814
vt 0.788698 0.488274
vt 0.704223 0.488273
vt 0.704223 0.045814
vt 0.873173 0.488273
vt 0.873173 0.045814
vt 0.830936 0.488273
vt 0.830936 0.045814
vt 0.517282 0.990560
vt 0.517282 0.548100
vt 0.552737 0.548100
vt 0.552737 0.990560
vt 0.637212 0.548100
vt 0.637211 0.990560
vt 0.601757 0.990560
vt 0.601757 0.548101
vt 0.559520 0.990560
vt 0.559520 0.548101
vt 0.594974 0.548100
vt 0.594974 0.990560
vt 0.475045 0.990560
vt 0.475045 0.548101
vt 0.510499 0.548101
vt 0.510499 0.990560
vt 0.513891 0.548100
vt 0.513891 0.990560
vt 0.556128 0.548100
vt 0.556128 0.990560
vt 0.471653 0.990560
vt 0.471653 0.548100
vt 0.640603 0.990560
vt 0.640603 0.548100
vt 0.598366 0.990560
vt 0.598366 0.548100
vn -0.033616 0.000000 0.999435
vn -0.033616 0.000000 0.999435
vn 0.033616 0.000000 0.999435
vn 0.033616 0.000000 0.999435
vn -0.033615 0.000000 -0.999435
vn -0.033615 0.000000 -0.999435
vn 0.033615 0.000000 -0.999435
vn 0.033615 0.000000 -0.999435
vn 0.999435 0.000000 0.033614
vn 0.999435 0.000000 0.033614
vn 0.999435 0.000000 -0.033614
vn 0.999435 0.000000 -0.033614
vn -0.999435 0.000000 -0.033615
vn -0.999435 0.000000 -0.033615
vn -0.999435 0.000000 0.033615
vn -0.999435 0.000000 0.033615
vn -0.923880 0.000000 0.382681
vn -0.923880 0.000000 0.382681
vn -0.382687 0.000000 0.923878
vn -0.382687 0.000000 0.923878
vn 0.382685 0.000000 0.923879
vn 0.382685 0.000000 0.923879
vn 0.923885 0.000000 0.382671
vn 0.923885 0.000000 0.382671
vn -0.923879 0.000000 -0.382685
vn -0.923879 0.000000 -0.382685
vn -0.382679 0.000000 -0.923881
vn -0.382679 0.000000 -0.923881
vn 0.382677 0.000000 -0.923882
vn 0.382677 0.000000 -0.923882
vn 0.923884 0.000000 -0.382674
vn 0.923884 0.000000 -0.382674
vn -0.707037 0.014110 -0.707036
vn -0.707037 0.014110 -0.707036
vn -0.707036 -0.014110 -0.707037
vn -0.707036 -0.014110 -0.707037
vn 0.000000 -0.014135 -0.999900
vn 0.000000 0.014135 -0.999900
vn 0.000000 0.014135 -0.999900
vn 0.000000 -0.014135 -0.999900
vn -0.999900 0.014136 0.000000
vn -0.999900 -0.014136 0.000000
vn -0.999900 -0.014136 0.000000
vn -0.999900 0.014136 0.000000
vn 0.707037 0.014110 -0.707036
vn 0.707037 0.014110 -0.707036
vn 0.707036 -0.014110 -0.707037
vn 0.707036 -0.014110 -0.707037
vn -0.707036 -0.014110 0.707037
vn -0.707036 -0.014110 0.707037
vn -0.707037 0.014110 0.707036
vn -0.707037 0.014110 0.707036
vn 0.999900 0.014136 0.000000
vn 0.999900 -0.014136 0.000000
vn 0.999900 -0.014136 0.000000
vn 0.999900 0.014136 0.000000
vn 0.000000 0.014135 0.999900
vn 0.000000 -0.014135 0.999900
vn 0.000000 -0.014135 0.999900
vn 0.000000 0.014135 0.999900
vn 0.707036 -0.014110 0.707037
vn 0.707036 -0.014110 0.707037
vn 0.707037 0.014110 0.707036
vn 0.707037 0.014110 0.707036
vn -0.653282 0.382694 -0.653275
vn -0.653282 0.382694 -0.653275
vn -0.367972 0.928951 -0.040585
vn -0.008368 0.999965 -0.000923
vn -0.000433 0.999992 -0.003926
vn -0.040583 0.928951 -0.367972
vn 0.000000 0.382672 -0.923884
vn 0.000000 0.382672 -0.923884
vn 0.000415 0.999993 -0.003762
vn 0.040583 0.928951 -0.367972
vn -0.653269 -0.382687 -0.653292
vn -0.653269 -0.382687 -0.653292
vn -0.040583 -0.928951 -0.367972
vn -0.000433 -0.999992 -0.003926
vn -0.008368 -0.999965 -0.000923
vn -0.367972 -0.928951 -0.040585
vn -0.923871 -0.382704 0.000000
vn -0.923871 -0.382704 0.000000
vn -0.008421 -0.999964 0.000929
vn -0.367972 -0.928951 0.040585
vn 0.653282 0.382694 -0.653275
vn 0.653282 0.382694 -0.653275
vn 0.009706 0.999952 -0.001071
vn 0.367972 0.928951 -0.040585
vn 0.040583 -0.928951 -0.367972
vn 0.000415 -0.999993 -0.003761
vn 0.000000 -0.382702 -0.923872
vn 0.000000 -0.382702 -0.923872
vn -0.653269 -0.382687 0.653292
vn -0.653269 -0.382687 0.653292
vn -0.000417 -0.999993 0.003785
vn -0.040583 -0.928951 0.367972
vn -0.367972 0.928951 0.040585
vn -0.008421 0.999964 0.000929
vn -0.923871 0.382704 0.000000
vn -0.923871 0.382704 0.000000
vn 0.923871 0.382704 0.000000
vn 0.923871 0.382704 0.000000
vn 0.009751 0.999952 0.001076
vn 0.367972 0.928951 0.040585
vn 0.367972 -0.928951 -0.040585
vn 0.009706 -0.999952 -0.001071
vn 0.653269 -0.382687 -0.653292
vn 0.653269 -0.382687 -0.653292
vn 0.000000 -0.382702 0.923872
vn 0.000000 -0.382702 0.923872
vn 0.000400 -0.999993 0.003630
vn 0.040583 -0.928951 0.367972
vn -0.040583 0.928951 0.367972
vn -0.000417 0.999993 0.003786
vn -0.653282 0.382694 0.653275
vn -0.653282 0.382694 0.653275
vn 0.367972 -0.928951 0.040585
vn 0.009751 -0.999952 0.001075
vn 0.923871 -0.382704 0.000000
vn 0.923871 -0.382704 0.000000
vn 0.653282 0.382694 0.653275
vn 0.653282 0.382694 0.653275
vn 0.000400 0.999993 0.003630
vn 0.040583 0.928951 0.367972
vn 0.653269 -0.382687 0.653292
vn 0.653269 -0.382687 0.653292
vn 0.000000 0.382672 0.923884
vn 0.000000 0.382672 0.923884
vn 0.999150 -0.041229 0.000000
vn 0.999150 -0.041229 0.000000
vn 0.999150 0.041229 0.000000
vn 0.999150 0.041229 0.000000
vn 0.000000 0.040797 0.999168
vn 0.000000 0.040797 0.999168
vn 0.000000 -0.040797 0.999167
vn 0.000000 -0.040797 0.999167
vn 0.000000 -0.040797 -0.999167
vn 0.000000 -0.040797 -0.999167
vn 0.000000 0.040797 -0.999168
vn 0.000000 0.040797 -0.999168
vn -0.999150 -0.041229 0.000000
vn -0.999150 -0.041229 0.000000
vn -0.999150 0.041229 0.000000
vn -0.999150 0.041229 0.000000
vn -0.000160 -1.000000 0.000624
vn -0.000160 1.000000 0.000624
vn 0.000150 1.000000 0.000587
vn -0.000157 1.000000 -0.000613
vn 0.000148 1.000000 -0.000576
vn 0.000148 -1.000000 -0.000576
vn -0.000157 -1.000000 -0.000613
vn 0.000150 -1.000000 0.000587
vn 0.923878 -0.382688 0.000000
vn 0.923878 -0.382688 0.000000
vn 0.382685 -0.923879 0.000000
vn 0.382685 -0.923879 0.000000
vn 0.000000 -0.382682 0.923880
vn 0.000000 -0.382682 0.923880
vn 0.000000 -0.923877 0.382690
vn 0.000000 -0.923877 0.382690
vn 0.923878 0.382688 0.000000
vn 0.923878 0.382688 0.000000
vn 0.382685 0.923879 0.000000
vn 0.382685 0.923879 0.000000
vn 0.000000 0.382674 -0.923883
vn 0.000000 0.382674 -0.923883
vn 0.000000 0.923877 -0.382690
vn 0.000000 0.923877 -0.382690
vn 0.000000 0.923877 0.382690
vn 0.000000 0.923877 0.382690
vn 0.000000 0.382674 0.923883
vn 0.000000 0.382674 0.923883
vn -0.923878 -0.382688 0.000000
vn -0.923878 -0.382688 0.000000
vn -0.382687 -0.923878 0.000000
vn -0.382687 -0.923878 0.000000
vn 0.000000 -0.923877 -0.382690
vn 0.000000 -0.923877 -0.382690
vn 0.000000 -0.382682 -0.923880
vn 0.000000 -0.382682 -0.923880
vn -0.382687 0.923878 0.000000
vn -0.382687 0.923878 0.000000
vn -0.923878 0.382688 0.000000
vn -0.923878 0.382688 0.000000
vn -0.999435 0.000000 -0.033615
vn -0.999435 0.000000 -0.033615
vn -0.999435 0.000000 0.033615
vn -0.999435 0.000000 0.033615
vn 0.999435 0.000000 -0.033615
vn 0.999435 0.000000 -0.033615
vn 0.999435 0.000000 0.033615
vn 0.999435 0.000000 0.033615
vn -0.033615 0.000000 0.999435
vn -0.033615 0.000000 0.999435
vn 0.033615 0.000000 0.999435
vn 0.033615 0.000000 0.999435
vn 0.033615 0.000000 -0.999435
vn 0.033615 0.000000 -0.999435
vn -0.033615 0.000000 -0.999435
vn -0.033615 0.000000 -0.999435
vn -0.382679 0.000000 -0.923881
vn -0.382679 0.000000 -0.923881
vn -0.923880 0.000000 -0.382683
vn -0.923880 0.000000 -0.382683
vn -0.923880 0.000000 0.382681
vn -0.923880 0.000000 0.382681
vn -0.382675 0.000000 0.923883
vn -0.382675 0.000000 0.923883
vn 0.382680 0.000000 -0.923881
vn 0.382680 0.000000 -0.923881
vn 0.923880 0.000000 -0.382683
vn 0.923880 0.000000 -0.382683
vn 0.923880 0.000000 0.382681
vn 0.923880 0.000000 0.382681
vn 0.382677 0.000000 0.923882
vn 0.382677 0.000000 0.923882
vn 0.999435 0.000000 0.033615
vn 0.999435 0.000000 0.033615
vn 0.999435 0.000000 -0.033615
vn 0.999435 0.000000 -0.033615
vn -0.999435 0.000000 0.033615
vn -0.999435 0.000000 0.033615
vn -0.999435 0.000000 -0.033615
vn -0.999435 0.000000 -0.033615
vn 0.033614 0.000000 -0.999435
vn 0.033614 0.000000 -0.999435
vn -0.033614 0.000000 -0.999435
vn -0.033614 0.000000 -0.999435
vn -0.033615 0.000000 0.999435
vn -0.033615 0.000000 0.999435
vn 0.033615 0.000000 0.999435
vn 0.033615 0.000000 0.999435
vn 0.382683 0.000000 0.923880
vn 0.382683 0.000000 0.923880
vn 0.923880 0.000000 0.382681
vn 0.923880 0.000000 0.382681
vn 0.923880 0.000000 -0.382681
vn 0.923880 0.000000 -0.382681
vn 0.382671 0.000000 -0.923885
vn 0.382671 0.000000 -0.923885
vn -0.382684 0.000000 0.923879
vn -0.382684 0.000000 0.923879
vn -0.923880 0.000000 0.382681
vn -0.923880 0.000000 0.382681
vn -0.923880 0.000000 -0.382681
vn -0.923880 0.000000 -0.382681
vn -0.382673 0.000000 -0.923884
vn -0.382673 0.000000 -0.923884
vn -0.033615 0.000000 0.999435
vn -0.033615 0.000000 0.999435
vn 0.033615 0.000000 0.999435
vn 0.033615 0.000000 0.999435
vn -0.033615 0.000000 -0.999435
vn -0.033615 0.000000 -0.999435
vn 0.033615 0.000000 -0.999435
vn 0.033615 0.000000 -0.999435
vn 0.999435 0.000000 0.033615
vn 0.999435 0.000000 0.033615
vn 0.999435 0.000000 -0.033615
vn 0.999435 0.000000 -0.033615
vn -0.999435 0.000000 -0.033615
vn -0.999435 0.000000 -0.033615
vn -0.999435 0.000000 0.033615
vn -0.999435 0.000000 0.033615
vn -0.923882 0.000000 0.382678
vn -0.923882 0.000000 0.382678
vn -0.382683 0.000000 0.923880
vn -0.382683 0.000000 0.923880
vn 0.382683 0.000000 0.923880
vn 0.382683 0.000000 0.923880
vn 0.923883 0.000000 0.382674
vn 0.923883 0.000000 0.382674
vn -0.923881 0.000000 -0.382681
vn -0.923881 0.000000 -0.382681
vn -0.382683 0.000000 -0.923880
vn -0.382683 0.000000 -0.923880
vn 0.382683 0.000000 -0.923880
vn 0.382683 0.000000 -0.923880
vn 0.923882 0.000000 -0.382677
vn 0.923882 0.000000 -0.382677
s 1
g pCube5
usemtl lambert2SG
f 6/1/1 1/2/2 9/3/3 10/4/4
s 2
f 18/5/5 13/6/6 21/7/7 22/8/8
s 3
f 12/9/9 7/10/10 24/11/11 19/12/12
s 4
f 15/13/13 16/14/14 3/15/15 4/16/16
f 3/15/15 2/17/17 5/18/18 4/16/16
s 1
f 2/17/19 1/2/2 6/1/1 5/18/20
f 9/3/3 8/19/21 11/20/22 10/4/4
s 3
f 8/19/23 7/10/10 12/9/9 11/20/24
s 4
f 15/13/13 14/21/25 17/26/26 16/14/14
s 2
f 14/25/27 13/6/6 18/5/5 17/22/28
f 21/7/7 20/23/29 23/24/30 22/8/8
s 3
f 20/23/31 19/12/12 24/11/11 23/24/32
s 5
f 25/27/33 28/28/34 31/29/35 34/30/36
s 6
f 31/29/37 28/28/38 37/31/39 40/32/40
s 7
f 25/27/41 34/30/42 43/33/43 46/34/44
s 8
f 37/35/45 49/36/46 52/37/47 40/38/48
s 9
f 43/33/49 55/39/50 58/40/51 46/34/52
s 10
f 64/41/53 61/42/54 52/37/55 49/36/56
s 11
f 58/40/57 55/39/58 67/43/59 70/44/60
s 12
f 67/43/61 61/42/62 64/41/63 70/44/64
s 5
f 25/45/33 26/46/65 29/47/66 28/48/34
s 13
f 26/46/67 27/49/68 30/50/69 29/47/70
s 6
f 28/48/38 29/47/71 38/51/72 37/52/39
s 13
f 29/47/70 30/50/69 39/53/73 38/51/74
s 5
f 31/54/35 32/55/75 35/56/76 34/57/36
s 14
f 32/55/77 33/58/78 36/59/79 35/56/80
s 7
f 34/57/42 35/56/81 44/60/82 43/61/43
s 14
f 35/56/80 36/59/79 45/62/83 44/60/84
s 8
f 37/52/45 38/51/85 50/63/86 49/64/46
s 13
f 38/51/74 39/53/73 51/65/87 50/63/88
s 14
f 33/58/78 32/55/77 41/66/89 42/67/90
s 6
f 32/55/91 31/54/37 40/68/40 41/66/92
s 9
f 43/61/49 44/60/93 56/69/94 55/70/50
s 14
f 44/60/84 45/62/83 57/71/95 56/69/96
s 13
f 27/49/68 26/46/67 47/72/97 48/73/98
s 7
f 26/46/99 25/45/41 46/74/44 47/72/100
s 10
f 49/64/56 50/63/101 65/75/102 64/76/53
s 13
f 50/63/88 51/65/87 66/77/103 65/75/104
s 14
f 42/67/90 41/66/89 53/78/105 54/79/106
s 8
f 41/66/107 40/68/48 52/80/47 53/78/108
s 11
f 55/70/58 56/69/109 68/81/110 67/82/59
s 14
f 56/69/96 57/71/95 69/83/111 68/81/112
s 13
f 48/73/98 47/72/97 59/84/113 60/85/114
s 9
f 47/72/115 46/74/52 58/86/51 59/84/116
s 14
f 54/79/106 53/78/105 62/87/117 63/88/118
s 10
f 53/78/119 52/80/55 61/89/54 62/87/120
s 12
f 64/76/63 65/75/121 71/90/122 70/91/64
s 13
f 65/75/104 66/77/103 72/92/123 71/90/124
s 14
f 63/88/118 62/87/117 68/81/112 69/83/111
s 12
f 62/87/125 61/89/62 67/82/61 68/81/126
s 13
f 60/85/114 59/84/113 71/90/124 72/92/123
s 11
f 59/84/127 58/86/57 70/91/60 71/90/128
s 15
f 73/93/129 76/94/130 79/95/131 82/96/132
s 16
f 85/97/133 79/98/134 76/99/135 88/100/136
s 17
f 91/101/137 73/93/138 82/96/139 94/102/140
s 18
f 88/100/141 91/101/142 94/102/143 85/97/144
s 14
f 90/103/145 42/67/90 54/79/106
s 13
f 87/104/146 39/53/73 30/50/69 81/105/147
f 96/106/148 72/92/123 66/77/103
f 87/104/146 51/65/87 39/53/73
f 66/77/103 51/65/87 87/104/146 96/106/148
f 81/105/147 30/50/69 27/49/68
f 48/73/98 84/107/149 81/105/147 27/49/68
f 84/107/149 60/85/114 72/92/123 96/106/148
f 48/73/98 60/85/114 84/107/149
s 14
f 57/71/95 75/108/150 93/109/151 69/83/111
f 93/109/151 63/88/118 69/83/111
f 90/103/145 54/79/106 63/88/118 93/109/151
f 90/103/145 78/110/152 33/58/78 42/67/90
f 33/58/78 78/110/152 36/59/79
f 45/62/83 75/108/150 57/71/95
f 36/59/79 78/110/152 75/108/150 45/62/83
s 15
f 73/93/129 74/111/153 77/112/154 76/94/130
s 14
f 74/111/155 75/113/150 78/114/152 77/112/156
s 16
f 76/99/135 77/115/157 89/116/158 88/100/136
s 14
f 77/115/159 78/117/152 90/118/145 89/116/160
s 15
f 79/95/131 80/119/161 83/120/162 82/96/132
s 13
f 80/119/163 81/121/147 84/122/149 83/120/164
s 17
f 82/96/139 83/120/165 95/123/166 94/102/140
s 13
f 83/120/167 84/122/149 96/124/148 95/123/168
f 81/125/147 80/126/169 86/127/170 87/128/146
s 16
f 80/126/171 79/98/134 85/97/133 86/127/172
s 18
f 88/100/141 89/116/173 92/129/174 91/101/142
s 14
f 89/116/175 90/118/145 93/130/151 92/129/176
f 75/113/150 74/111/177 92/129/178 93/130/151
s 17
f 74/111/179 73/93/138 91/101/137 92/129/180
s 13
f 87/128/146 86/127/181 95/123/182 96/124/148
s 18
f 86/127/183 85/97/144 94/102/143 95/123/184
s 19
f 102/131/185 97/132/186 105/133/187 106/134/188
s 20
f 114/135/189 109/136/190 117/137/191 118/138/192
s 21
f 108/139/193 103/140/194 120/141/195 115/142/196
s 22
f 111/143/197 112/144/198 99/145/199 100/146/200
f 99/145/199 98/147/201 101/148/202 100/146/200
s 19
f 98/147/203 97/132/186 102/131/185 101/148/204
f 105/133/187 104/149/205 107/150/206 106/134/188
s 21
f 104/149/207 103/140/194 108/139/193 107/150/208
s 22
f 111/143/197 110/151/209 113/152/210 112/144/198
s 20
f 110/153/211 109/136/190 114/135/189 113/154/212
f 117/137/191 116/155/213 119/156/214 118/138/192
s 21
f 116/155/215 115/142/196 120/141/195 119/156/216
s 23
f 126/157/217 121/158/218 129/159/219 130/160/220
s 24
f 138/161/221 133/162/222 141/163/223 142/164/224
s 25
f 132/165/225 127/166/226 144/167/227 139/168/228
s 26
f 135/169/229 136/170/230 123/171/231 124/172/232
f 123/171/231 122/173/233 125/174/234 124/172/232
s 23
f 122/173/235 121/158/218 126/157/217 125/174/236
f 129/159/219 128/175/237 131/176/238 130/160/220
s 25
f 128/175/239 127/166/226 132/165/225 131/176/240
s 26
f 135/169/229 134/177/241 137/178/242 136/170/230
s 24
f 134/179/243 133/162/222 138/161/221 137/180/244
f 141/163/223 140/181/245 143/182/246 142/164/224
s 25
f 140/181/247 139/168/228 144/167/227 143/182/248
s 27
f 150/183/249 145/184/250 153/185/251 154/186/252
s 28
f 162/187/253 157/188/254 165/189/255 166/190/256
s 29
f 156/191/257 151/192/258 168/193/259 163/194/260
s 30
f 159/195/261 160/196/262 147/197/263 148/198/264
f 147/197/263 146/199/265 149/200/266 148/198/264
s 27
f 146/199/267 145/184/250 150/183/249 149/200/268
f 153/185/251 152/201/269 155/202/270 154/186/252
s 29
f 152/201/271 151/192/258 156/191/257 155/202/272
s 30
f 159/195/261 158/203/273 161/204/274 160/196/262
s 28
f 158/205/275 157/188/254 162/187/253 161/206/276
f 165/189/255 164/207/277 167/208/278 166/190/256
s 29
f 164/207/279 163/194/260 168/193/259 167/208/280
