# This file uses centimeters as units for non-parametric coordinates.

mtllib CandleBox.mtl
g default
v -0.728770 0.037861 1.730097
v 0.728770 0.037861 1.730097
v -0.728770 1.661940 1.730097
v 0.728770 1.661940 1.730097
v -0.728770 1.661940 1.105621
v 0.728770 1.661940 1.105621
v -0.728770 0.037861 1.105621
v 0.728770 0.037861 1.105621
vt 0.502953 0.340929
vt 0.000000 0.000007
vt 0.395819 0.272814
vt 0.383008 0.667398
vt 0.668628 0.389753
vt 0.251187 0.394255
vt 0.785567 0.116944
vt 0.000000 0.000007
vt 0.701227 0.710912
vt 0.787081 0.426784
vt 0.417099 0.625057
vt 0.000000 0.211374
vt 0.000000 0.000007
vt 0.208377 0.000000
vt 0.211374 0.419750
vt 0.419750 0.208377
vt 0.677348 0.705661
vt 0.344745 0.961737
vt 0.639084 1.000000
vt 0.422092 0.636929
vt 0.179418 0.807835
vt 0.512758 0.000005
vt 0.008512 0.565160
vt 0.000000 0.000007
vn 0.000000 0.000000 1.000000
vn 0.000000 0.000000 1.000000
vn 0.000000 0.000000 1.000000
vn 0.000000 0.000000 1.000000
vn 0.000000 1.000000 0.000000
vn 0.000000 1.000000 0.000000
vn 0.000000 1.000000 0.000000
vn 0.000000 1.000000 0.000000
vn 0.000000 0.000000 -1.000000
vn 0.000000 0.000000 -1.000000
vn 0.000000 0.000000 -1.000000
vn 0.000000 0.000000 -1.000000
vn 0.000000 -1.000000 0.000000
vn 0.000000 -1.000000 0.000000
vn 0.000000 -1.000000 0.000000
vn 0.000000 -1.000000 0.000000
vn 1.000000 0.000000 0.000000
vn 1.000000 0.000000 0.000000
vn 1.000000 0.000000 0.000000
vn 1.000000 0.000000 0.000000
vn -1.000000 0.000000 0.000000
vn -1.000000 0.000000 0.000000
vn -1.000000 0.000000 0.000000
vn -1.000000 0.000000 0.000000
s off
g pCube47
usemtl initialShadingGroup
f 1/12/1 2/14/2 4/16/3 3/15/4
f 3/4/5 4/17/6 6/19/7 5/18/8
f 5/6/9 6/20/10 8/21/11 7/23/12
f 7/8/13 8/24/14 2/2/15 1/13/16
f 2/22/17 8/7/18 6/5/19 4/3/20
f 7/11/21 1/1/22 3/10/23 5/9/24
