# This file uses centimeters as units for non-parametric coordinates.

mtllib SingleCandle.mtl
g default
v -0.009967 1.456420 -0.017263
v -0.009967 1.456420 0.017263
v 0.019934 1.456420 0.000000
v -0.009967 1.693268 -0.017263
v -0.009967 1.693268 0.017263
v 0.019934 1.693268 0.000000
vt 0.633834 0.594077
vt 0.341205 0.628441
vt 0.467872 0.719666
vt 0.415092 1.000000
vt 0.063810 0.795701
vt 0.292652 0.834344
vt 0.327062 0.495081
vt 0.695947 0.909979
vn -1.000000 0.000000 -0.000000
vn -1.000000 0.000000 -0.000000
vn -1.000000 0.000000 -0.000000
vn -1.000000 0.000000 -0.000000
vn 0.500000 0.000000 0.866025
vn 0.500000 0.000000 0.866025
vn 0.500000 0.000000 0.866025
vn 0.500000 0.000000 0.866025
vn 0.500000 0.000000 -0.866025
vn 0.500000 0.000000 -0.866025
vn 0.500000 0.000000 -0.866025
vn 0.500000 0.000000 -0.866025
vn 0.000000 1.000000 0.000000
vn 0.000000 1.000000 0.000000
vn 0.000000 1.000000 0.000000
s off
g pCylinder2
usemtl initialShadingGroup
f 1/7/1 2/2/2 5/6/3 4/5/4
f 2/2/5 3/3/6 6/4/7 5/6/8
f 3/3/9 1/1/10 4/8/11 6/4/12
f 5/6/13 6/4/14 4/5/15
g default
v 0.139728 0.008058 -0.253709
v -0.139727 0.008058 -0.253709
v -0.279455 0.008058 -0.000000
v -0.139728 0.008058 0.253709
v 0.139727 0.008058 0.253709
v 0.279455 0.008058 0.000000
v 0.000000 0.008058 0.000000
v 0.000000 1.486776 0.000000
v 0.139728 1.475009 -0.253709
v 0.127507 1.486776 -0.230878
v -0.139727 1.475009 -0.253709
v -0.127507 1.486776 -0.230878
v -0.279455 1.475009 -0.000000
v -0.254661 1.486776 -0.000000
v -0.139728 1.475009 0.253709
v -0.127507 1.486776 0.230878
v 0.139727 1.475009 0.253709
v 0.127507 1.486776 0.230878
v 0.279455 1.475009 0.000000
v 0.254661 1.486776 -0.000000
vt 0.242809 0.563381
vt 0.333316 0.486620
vt 0.000000 0.000027
vt 0.695347 0.179575
vt 0.604840 0.256336
vt 0.514332 0.333097
vt 0.423824 0.409859
vt 0.181015 0.307045
vt 0.221772 0.090176
vt 0.149136 0.010243
vt 0.271523 0.230284
vt 0.090508 0.383806
vt 0.188770 0.193343
vt 0.000000 0.460568
vt 0.083219 0.216267
vt 0.452539 0.076761
vt 0.010583 0.136334
vt 0.362031 0.153523
vt 0.043586 0.033166
vt 0.116178 0.113255
vt 0.000000 0.000027
vt 0.000000 0.000027
vt 0.000000 0.000027
vt 0.000000 0.000027
vt 0.000000 0.000027
vt 0.000000 0.000027
vt 0.036230 0.025261
vt 0.152407 0.000021
vt 0.000000 0.138498
vt 0.079949 0.226488
vt 0.196125 0.201248
vt 0.232355 0.088012
vt 0.152301 0.640143
vt 0.543046 0.000000
vn 0.000000 -1.000000 -0.000000
vn 0.000000 -1.000000 -0.000000
vn 0.000000 -1.000000 0.000000
vn 0.000000 -1.000000 0.000000
vn 0.000000 -1.000000 0.000000
vn 0.000000 -1.000000 0.000000
vn 0.000000 -1.000000 0.000000
vn 0.417296 0.879231 -0.229821
vn 0.417296 0.879231 -0.229821
vn 0.417296 0.879231 -0.229821
vn 0.417296 0.879231 -0.229821
vn 0.000000 0.888877 -0.458147
vn 0.000000 0.888877 -0.458147
vn 0.000000 0.888877 -0.458147
vn 0.000000 0.888877 -0.458147
vn -0.417296 0.879231 -0.229820
vn -0.417296 0.879231 -0.229820
vn -0.417296 0.879231 -0.229820
vn -0.417296 0.879231 -0.229821
vn -0.417296 0.879231 0.229821
vn -0.417296 0.879231 0.229821
vn -0.417296 0.879231 0.229821
vn -0.417296 0.879231 0.229821
vn -0.000000 0.888877 0.458147
vn -0.000000 0.888877 0.458147
vn -0.000000 0.888877 0.458147
vn -0.000000 0.888877 0.458147
vn 0.417296 0.879231 0.229820
vn 0.417296 0.879231 0.229820
vn 0.417296 0.879231 0.229820
vn 0.417296 0.879231 0.229820
vn 0.000000 0.000000 -1.000000
vn 0.000000 0.000000 -1.000000
vn 0.000000 0.000000 -1.000000
vn 0.000000 0.000000 -1.000000
vn -0.875942 0.000000 -0.482416
vn -0.875942 0.000000 -0.482416
vn -0.875942 0.000000 -0.482416
vn -0.875942 0.000000 -0.482416
vn -0.875943 0.000000 0.482415
vn -0.875943 0.000000 0.482415
vn -0.875943 0.000000 0.482415
vn -0.875943 0.000000 0.482415
vn -0.000000 0.000000 1.000000
vn -0.000000 0.000000 1.000000
vn -0.000000 0.000000 1.000000
vn -0.000000 0.000000 1.000000
vn 0.875943 0.000000 0.482416
vn 0.875943 0.000000 0.482416
vn 0.875943 0.000000 0.482416
vn 0.875943 0.000000 0.482416
vn 0.875943 0.000000 -0.482415
vn 0.875943 0.000000 -0.482415
vn 0.875943 0.000000 -0.482415
vn 0.875943 0.000000 -0.482415
vn 0.000000 1.000000 0.000000
vn 0.000000 1.000000 0.000000
vn 0.000000 1.000000 0.000000
vn 0.000000 1.000000 0.000000
vn 0.000000 1.000000 0.000000
vn 0.000000 1.000000 0.000000
vn 0.000000 1.000000 0.000000
s 1
g pCylinder1
usemtl initialShadingGroup
f 8/34/16 7/30/17 13/11/18
f 9/33/19 8/34/16 13/11/18
f 10/32/20 9/33/19 13/11/18
f 11/31/21 10/32/20 13/11/18
f 12/29/22 11/31/21 13/11/18
f 7/30/17 12/29/22 13/11/18
s off
f 15/40/23 16/17/24 26/18/25 25/36/26
f 16/17/27 15/40/28 17/39/29 18/21/30
f 18/21/31 17/39/32 19/38/33 20/23/34
f 20/23/35 19/38/36 21/37/37 22/25/38
f 22/25/39 21/37/40 23/35/41 24/27/42
f 24/27/43 23/35/44 25/36/45 26/18/46
f 7/10/47 8/9/48 17/20/49 15/16/50
f 8/9/51 9/41/52 19/22/53 17/20/54
f 9/12/55 10/13/56 21/24/57 19/42/58
f 10/13/59 11/14/60 23/26/61 21/24/62
f 11/14/63 12/15/64 25/19/65 23/26/66
f 12/15/67 7/10/68 15/16/69 25/19/70
s 2
f 16/17/71 18/21/72 14/28/73
f 18/21/72 20/23/74 14/28/73
f 20/23/74 22/25/75 14/28/73
f 22/25/75 24/27/76 14/28/73
f 24/27/76 26/18/77 14/28/73
f 26/18/77 16/17/71 14/28/73
